<?xml version="1.0" standalone="no"?>
<!DOCTYPE svg PUBLIC "-//W3C//DTD SVG 20010904//EN"
 "http://www.w3.org/TR/2001/REC-SVG-20010904/DTD/svg10.dtd">
<svg version="1.0" xmlns="http://www.w3.org/2000/svg"
 width="225.000000pt" height="225.000000pt" viewBox="0 0 225.000000 225.000000"
 preserveAspectRatio="xMidYMid meet">

<g transform="translate(0.000000,225.000000) scale(0.100000,-0.100000)"
fill="#000000" stroke="none">
<path d="M1065 1885 c-51 -18 -92 -64 -107 -118 -10 -38 -16 -45 -67 -67 -73
-32 -196 -154 -233 -230 -49 -98 -58 -157 -58 -361 l0 -187 -39 -31 c-66 -52
-119 -149 -136 -249 l-7 -42 707 0 707 0 -7 42 c-17 100 -70 197 -136 249
l-39 31 0 187 c0 203 -9 258 -57 359 -37 78 -160 199 -234 232 -51 23 -57 29
-68 69 -14 54 -64 105 -116 120 -50 14 -61 13 -110 -4z m131 -89 c28 -28 34
-42 34 -75 0 -31 5 -43 18 -47 50 -17 142 -67 178 -98 55 -47 108 -127 133
-204 19 -55 21 -85 21 -277 0 -118 4 -215 9 -215 4 0 29 -18 55 -41 45 -40 87
-101 101 -146 l6 -23 -626 0 -626 0 6 23 c14 45 56 106 101 146 26 23 50 41
55 41 4 0 9 105 11 233 l3 232 37 78 c47 98 119 172 208 214 36 17 73 34 83
37 12 4 17 16 17 47 0 57 50 109 105 109 29 0 45 -8 71 -34z"/>
<path d="M1321 1462 c41 -44 91 -108 112 -143 25 -44 37 -57 37 -42 0 41 -42
135 -78 175 -30 33 -116 88 -138 88 -3 0 27 -35 67 -78z"/>
<path d="M950 513 c0 -10 9 -36 19 -59 60 -132 243 -134 309 -4 32 64 30 80
-13 80 -29 0 -35 -4 -35 -21 0 -12 -15 -36 -34 -55 -47 -47 -95 -47 -142 0
-19 19 -34 43 -34 55 0 17 -6 21 -35 21 -27 0 -35 -4 -35 -17z"/>
</g>
</svg>
