<?xml version="1.0" standalone="no"?>
<!DOCTYPE svg PUBLIC "-//W3C//DTD SVG 20010904//EN"
 "http://www.w3.org/TR/2001/REC-SVG-20010904/DTD/svg10.dtd">
<svg version="1.0" xmlns="http://www.w3.org/2000/svg"
 width="768.000000pt" height="768.000000pt" viewBox="0 0 768.000000 768.000000"
 preserveAspectRatio="xMidYMid meet">

<g transform="translate(0.000000,768.000000) scale(0.100000,-0.100000)"
fill="#000000" stroke="none">
<path d="M3305 5114 c-286 -39 -493 -135 -674 -313 -219 -214 -332 -485 -332
-791 0 -304 100 -554 309 -772 125 -129 277 -227 447 -285 210 -72 490 -71
701 1 70 24 203 88 261 126 l32 21 15 -28 c8 -15 191 -204 408 -419 310 -309
400 -393 426 -399 87 -18 188 35 235 125 24 46 28 64 24 108 l-4 54 -404 404
c-222 222 -412 407 -421 410 -15 4 -11 15 27 78 124 204 180 450 155 682 -52
490 -402 878 -883 980 -72 15 -265 26 -322 18z m199 -404 c319 -46 566 -300
606 -623 36 -289 -121 -579 -385 -712 -212 -107 -470 -99 -676 21 -140 82
-267 237 -315 388 -35 108 -44 271 -20 379 63 282 304 505 591 546 84 12 120
12 199 1z"/>
</g>
</svg>
